<svg width="20" height="20" viewBox="0 0 20 20" xmlns="http://www.w3.org/2000/svg">
<path d="M5.70715 1.70712L1.70715 5.70712L0.292938 4.29291L4.29294 0.292908L5.70715 1.70712Z"/>
<path d="M18.2928 5.70712L14.2928 1.70712L15.7071 0.292908L19.7071 4.29291L18.2928 5.70712Z"/>
<path fill-rule="evenodd" clip-rule="evenodd" d="M0.999998 11C0.999998 6.02944 5.02944 2 10 2C14.9706 2 19 6.02944 19 11C19 15.9706 14.9706 20 10 20C5.02944 20 0.999998 15.9706 0.999998 11ZM8.5 12V5.5H10.5V10.0568L12.4188 8.68627L13.5812 10.3137L10.0812 12.8137C9.77642 13.0315 9.37549 13.0606 9.04242 12.8892C8.70935 12.7178 8.5 12.3746 8.5 12Z"/>
</svg>
