<svg width="20" height="20" viewBox="0 0 20 20" xmlns="http://www.w3.org/2000/svg">
<path d="M13.9902 6.12891C14.3613 5.75977 14.3613 5.15821 13.9902 4.78907L12.625 3.42383L12.6269 3.42579C12.2656 3.06446 11.6445 2.44337 10.7656 1.56641C10.3515 1.16212 9.68162 1.16602 9.27147 1.57618L1.58006 9.26173C1.48166 9.35946 1.40356 9.4757 1.35026 9.60375C1.29697 9.7318 1.26953 9.86912 1.26953 10.0078C1.26953 10.1465 1.29697 10.2838 1.35026 10.4119C1.40356 10.5399 1.48166 10.6562 1.58006 10.7539L9.26951 18.4375C9.46777 18.6354 9.73645 18.7466 10.0166 18.7466C10.2967 18.7466 10.5654 18.6354 10.7637 18.4375L13.9883 15.2148C14.3594 14.8457 14.3594 14.2441 13.9883 13.875C13.81 13.6977 13.5688 13.5981 13.3174 13.5981C13.0659 13.5981 12.8247 13.6977 12.6465 13.875L10.2051 16.3203C10.1035 16.4219 9.9453 16.4219 9.84373 16.3203L3.70116 10.1836C3.59959 10.082 3.59959 9.92383 3.70116 9.82227L9.84178 3.68555C9.84959 3.67774 9.85936 3.67188 9.86717 3.66407C9.96873 3.58399 10.1094 3.5918 10.2031 3.68555L12.6484 6.12891C13.0195 6.50001 13.6211 6.50001 13.9902 6.12891ZM7.98045 10.0469C7.98045 10.597 8.19919 11.1246 8.58855 11.5136C8.97791 11.9026 9.50599 12.1211 10.0566 12.1211C10.6073 12.1211 11.1353 11.9026 11.5247 11.5136C11.9141 11.1246 12.1328 10.597 12.1328 10.0469C12.1328 9.49676 11.9141 8.96918 11.5247 8.58019C11.1353 8.1912 10.6073 7.97266 10.0566 7.97266C9.50599 7.97266 8.97791 8.1912 8.58855 8.58019C8.19919 8.96918 7.98045 9.49676 7.98045 10.0469ZM18.4531 9.29297L16.0527 6.9043C15.6816 6.53516 15.0801 6.53516 14.7109 6.90626C14.6227 6.99409 14.5527 7.09849 14.5049 7.21345C14.4571 7.32842 14.4326 7.45168 14.4326 7.57618C14.4326 7.70067 14.4571 7.82394 14.5049 7.9389C14.5527 8.05387 14.6227 8.15827 14.7109 8.2461L16.332 9.86524C16.4336 9.9668 16.4336 10.125 16.332 10.2266L14.7344 11.8223C14.6461 11.9101 14.5761 12.0145 14.5284 12.1295C14.4806 12.2444 14.456 12.3677 14.456 12.4922C14.456 12.6167 14.4806 12.74 14.5284 12.8549C14.5761 12.9699 14.6461 13.0743 14.7344 13.1621C14.9126 13.3395 15.1538 13.439 15.4053 13.439C15.6567 13.439 15.8979 13.3395 16.0762 13.1621L18.4551 10.7852C18.5531 10.6872 18.6309 10.5708 18.6839 10.4427C18.7369 10.3146 18.7641 10.1773 18.7639 10.0387C18.7637 9.90003 18.7362 9.7628 18.6828 9.63484C18.6295 9.50688 18.5514 9.3907 18.4531 9.29297Z"/>
</svg>
