<svg width="20" height="20" viewBox="0 0 20 20" xmlns="http://www.w3.org/2000/svg">
<path d="M15.2082 18.538C14.1976 19.5176 13.0943 19.3629 12.0321 18.8989C10.9082 18.4245 9.87697 18.4039 8.69111 18.8989C7.20621 19.5382 6.42252 19.3526 5.5357 18.538C0.503537 13.3511 1.24599 5.45227 6.95873 5.16354C8.35082 5.23572 9.32013 5.92661 10.1348 5.98848C11.3516 5.741 12.5168 5.02948 13.8161 5.12229C15.3732 5.24603 16.5487 5.86474 17.3221 6.97841C14.1048 8.90672 14.8679 13.1449 17.8171 14.3307C17.2293 15.8775 16.4662 17.414 15.1979 18.5483L15.2082 18.538ZM10.0316 5.10166C9.87697 2.80213 11.7434 0.904759 13.8883 0.719147C14.1873 3.37959 11.4753 5.35946 10.0316 5.10166Z"/>
</svg>
