<svg width="20" height="20" viewBox="0 0 20 20" xmlns="http://www.w3.org/2000/svg">
<path fill-rule="evenodd" clip-rule="evenodd" d="M6.5 4.5C5.94772 4.5 5.5 4.94772 5.5 5.5C5.5 6.05228 5.94772 6.5 6.5 6.5C7.05228 6.5 7.5 6.05228 7.5 5.5C7.5 4.94772 7.05228 4.5 6.5 4.5ZM4 5.5C4 4.11929 5.11929 3 6.5 3C7.88071 3 9 4.11929 9 5.5C9 6.88071 7.88071 8 6.5 8C5.11929 8 4 6.88071 4 5.5Z"/>
<path fill-rule="evenodd" clip-rule="evenodd" d="M13.5 4.5C12.9477 4.5 12.5 4.94772 12.5 5.5C12.5 6.05228 12.9477 6.5 13.5 6.5C14.0523 6.5 14.5 6.05228 14.5 5.5C14.5 4.94772 14.0523 4.5 13.5 4.5ZM11 5.5C11 4.11929 12.1193 3 13.5 3C14.8807 3 16 4.11929 16 5.5C16 6.88071 14.8807 8 13.5 8C12.1193 8 11 6.88071 11 5.5Z"/>
<path fill-rule="evenodd" clip-rule="evenodd" d="M6.5 13.5C5.94772 13.5 5.5 13.9477 5.5 14.5C5.5 15.0523 5.94772 15.5 6.5 15.5C7.05228 15.5 7.5 15.0523 7.5 14.5C7.5 13.9477 7.05228 13.5 6.5 13.5ZM4 14.5C4 13.1193 5.11929 12 6.5 12C7.88071 12 9 13.1193 9 14.5C9 15.8807 7.88071 17 6.5 17C5.11929 17 4 15.8807 4 14.5Z"/>
<path fill-rule="evenodd" clip-rule="evenodd" d="M6.75 7C7.16421 7 7.5 7.33579 7.5 7.75V9.50105C7.79975 9.50347 8.09687 9.50969 8.38501 9.51579L8.39891 9.51609C8.76483 9.52383 9.11525 9.53125 9.45312 9.53125C10.1447 9.53125 10.7333 9.49932 11.2123 9.39286C11.688 9.28716 11.9855 9.12313 12.1699 8.91237C12.3466 8.71049 12.5 8.37337 12.5 7.75C12.5 7.33579 12.8358 7 13.25 7C13.6642 7 14 7.33579 14 7.75C14 8.62663 13.7784 9.35201 13.2988 9.90013C12.827 10.4394 12.187 10.7128 11.5377 10.8571C10.8917 11.0007 10.1678 11.0312 9.45312 11.0312C9.0992 11.0312 8.73512 11.0235 8.37481 11.0159L8.35327 11.0155C8.06733 11.0094 7.78314 11.0035 7.5 11.0011V12.25C7.5 12.6642 7.16421 13 6.75 13C6.33579 13 6 12.6642 6 12.25V7.75C6 7.33579 6.33579 7 6.75 7Z"/>
</svg>
