<svg width="20" height="20" viewBox="0 0 20 20" xmlns="http://www.w3.org/2000/svg">
<path d="M3 1.00002C2.44772 1.00002 2 1.44773 2 2.00002V18C2 18.5523 2.44772 19 3 19H17C17.5523 19 18 18.5523 18 18V2.00002C18 1.44773 17.5523 1.00002 17 1.00002H3ZM6.88889 16.75H4.22222V14.05H6.88889V16.75ZM6.88889 12.25H4.22222V9.55002H6.88889V12.25ZM11.3333 16.75H8.66667V14.05H11.3333V16.75ZM11.3333 12.25H8.66667V9.55002H11.3333V12.25ZM15.7778 16.75H13.1111V9.55002H15.7778V16.75ZM16.2222 6.40001H3.77778V2.80002H16.2222V6.40001Z"/>
</svg>
