<svg width="20" height="20" viewBox="0 0 20 20" xmlns="http://www.w3.org/2000/svg">
<path d="M8.4375 19.2594C8.3295 19.2593 8.22335 19.2313 8.12937 19.1781L2.81687 16.1687C2.72068 16.1142 2.64067 16.0352 2.585 15.9397C2.52934 15.8441 2.5 15.7355 2.5 15.625V9.37499C2.5 9.26442 2.52934 9.15584 2.585 9.06032C2.64067 8.96479 2.72068 8.88574 2.81687 8.83124L8.12937 5.82186C8.22336 5.76867 8.32951 5.74072 8.4375 5.74072C8.54549 5.74072 8.65164 5.76867 8.74563 5.82186L14.0581 8.83124C14.1543 8.88574 14.2343 8.96479 14.29 9.06032C14.3457 9.15584 14.375 9.26442 14.375 9.37499V15.625C14.375 15.7355 14.3457 15.8441 14.29 15.9397C14.2343 16.0352 14.1543 16.1142 14.0581 16.1687L8.74563 19.1781C8.65165 19.2313 8.5455 19.2593 8.4375 19.2594ZM3.75 15.2606L8.4375 17.9162L13.125 15.2606V9.73936L8.4375 7.08436L3.75 9.73936V15.2606Z"/>
<path d="M17.5 10.625H16.25V4.73936L11.5625 2.08436L6.55814 4.91874L5.94189 3.83124L11.2544 0.821861C11.3484 0.768675 11.4545 0.740723 11.5625 0.740723C11.6705 0.740723 11.7767 0.768675 11.8706 0.821861L17.1831 3.83124C17.2793 3.88574 17.3593 3.96479 17.415 4.06032C17.4707 4.15584 17.5 4.26442 17.5 4.37499V10.625Z"/>
</svg>
