<svg width="20" height="20" viewBox="0 0 20 20" xmlns="http://www.w3.org/2000/svg">
<path d="M10 18.3333C8.84724 18.3333 7.76391 18.1144 6.75002 17.6767C5.73613 17.2389 4.85419 16.6453 4.10419 15.8958C3.35419 15.1458 2.76058 14.2639 2.32335 13.25C1.88613 12.2361 1.66724 11.1528 1.66669 10C1.66669 8.84723 1.88558 7.76389 2.32335 6.75001C2.76113 5.73612 3.35474 4.85417 4.10419 4.10417C4.85419 3.35417 5.73613 2.76056 6.75002 2.32334C7.76391 1.88612 8.84724 1.66723 10 1.66667C11.1528 1.66667 12.2361 1.88556 13.25 2.32334C14.2639 2.76112 15.1459 3.35473 15.8959 4.10417C16.6459 4.85417 17.2397 5.73612 17.6775 6.75001C18.1153 7.76389 18.3339 8.84723 18.3334 10C18.3334 11.1528 18.1145 12.2361 17.6767 13.25C17.2389 14.2639 16.6453 15.1458 15.8959 15.8958C15.1459 16.6458 14.2639 17.2397 13.25 17.6775C12.2361 18.1153 11.1528 18.3339 10 18.3333ZM10.8334 16.6042C12.4861 16.3958 13.8717 15.67 14.99 14.4267C16.1084 13.1833 16.6672 11.7078 16.6667 10C16.6667 8.29167 16.1075 6.81612 14.9892 5.57334C13.8709 4.33056 12.4856 3.60473 10.8334 3.39584V16.6042Z"/>
</svg>
