<svg width="20" height="20" viewBox="0 0 20 20" xmlns="http://www.w3.org/2000/svg">
<path d="M17 4.21608V2.25577C17 1.61309 16.4024 1.1378 15.7706 1.25549C11.9881 1.96007 8.01189 1.96007 4.22939 1.25549C3.59758 1.1378 3 1.61309 3 2.25577V4.21608C7.55 5.26131 12.45 5.26131 17 4.21608Z"/>
<path d="M17 9.21608V6C12.45 7.04523 7.55 7.04523 3 6V9.21608C7.55 10.2613 12.45 10.2613 17 9.21608Z"/>
<path d="M17 14.2161V11C12.45 12.0452 7.55 12.0452 3 11V14.2161C7.55 15.2613 12.45 15.2613 17 14.2161Z"/>
<path fill-rule="evenodd" clip-rule="evenodd" d="M19 19H13V17H19V19Z"/>
<path fill-rule="evenodd" clip-rule="evenodd" d="M7 19H1V17H7V19Z"/>
<path d="M10 19.5C10.8284 19.5 11.5 18.8284 11.5 18C11.5 17.1716 10.8284 16.5 10 16.5C9.17157 16.5 8.5 17.1716 8.5 18C8.5 18.8284 9.17157 19.5 10 19.5Z"/>
</svg>
