<svg width="20" height="20" viewBox="0 0 20 20" xmlns="http://www.w3.org/2000/svg">
<path fill-rule="evenodd" clip-rule="evenodd" d="M16.1523 4.91438C16.6524 5.41448 16.9333 6.09276 16.9333 6.8C16.9333 7.50724 16.6524 8.18552 16.1523 8.68562C15.7798 9.05809 15.3085 9.30899 14.8 9.4128L14.8 18L13.7333 18L13.7333 9.4128C13.2248 9.30899 12.7535 9.05809 12.3811 8.68562C11.881 8.18552 11.6 7.50724 11.6 6.8C11.6 6.09276 11.881 5.41448 12.3811 4.91438C12.7535 4.54191 13.2248 4.29101 13.7333 4.1872L13.7333 2L14.8 2L14.8 4.1872C15.3085 4.29101 15.7798 4.54191 16.1523 4.91438ZM15.8667 6.8C15.8667 6.37565 15.6981 5.96869 15.3981 5.66863C15.098 5.36857 14.691 5.2 14.2667 5.2C13.8423 5.2 13.4354 5.36857 13.1353 5.66863C12.8353 5.96869 12.6667 6.37565 12.6667 6.8C12.6667 7.22435 12.8353 7.63131 13.1353 7.93137C13.4354 8.23143 13.8423 8.4 14.2667 8.4C14.691 8.4 15.098 8.23143 15.3981 7.93137C15.6981 7.63131 15.8667 7.22435 15.8667 6.8ZM7.61897 11.3144C8.11906 11.8145 8.40002 12.4928 8.40002 13.2C8.40002 13.9072 8.11906 14.5855 7.61897 15.0856C7.2465 15.4581 6.77518 15.709 6.26668 15.8128L6.26668 18L5.20001 18L5.20001 15.8128C4.69151 15.709 4.2202 15.4581 3.84773 15.0856C3.34763 14.5855 3.06668 13.9072 3.06668 13.2C3.06668 12.4928 3.34763 11.8145 3.84773 11.3144C4.2202 10.9419 4.69151 10.691 5.20001 10.5872L5.20002 2L6.26668 2L6.26668 10.5872C6.77518 10.691 7.2465 10.9419 7.61897 11.3144ZM7.33335 13.2C7.33335 12.7757 7.16478 12.3687 6.86472 12.0686C6.56466 11.7686 6.15769 11.6 5.73335 11.6C5.309 11.6 4.90204 11.7686 4.60198 12.0686C4.30192 12.3687 4.13335 12.7757 4.13335 13.2C4.13335 13.6243 4.30192 14.0313 4.60198 14.3314C4.90204 14.6314 5.309 14.8 5.73335 14.8C6.15769 14.8 6.56466 14.6314 6.86472 14.3314C7.16478 14.0313 7.33335 13.6243 7.33335 13.2Z"/>
</svg>
