<svg width="22" height="20" viewBox="0 0 22 20" xmlns="http://www.w3.org/2000/svg">
<path d="M4.08333 5.41669H13.4167V8.08335H12.4167C12.0833 6.75002 12.0833 6.08335 10.75 6.08335H7.41666V10.75H9.41666C10.0833 10.75 10.75 10.4167 10.75 9.41669H11.4167V12.75H10.75C10.75 11.75 10.0833 11.4167 9.41666 11.4167H7.41666V14.4167C7.41666 16.0834 9.75 16.0834 9.75 16.0834V16.75H4.08333V16.0834C5.41666 15.75 5.41666 15.0834 5.41666 14.4167V7.75002C5.41666 7.08335 5.41666 6.41669 4.08333 6.08335V5.41669Z"/>
<path d="M17.4 5.09999V7.19999H18.1V5.09999H20.2V4.39999H18.1V2.29999H17.4V4.39999H15.3V5.09999H17.4Z"/>
</svg>
