<svg width="20" height="21" viewBox="0 0 20 21" xmlns="http://www.w3.org/2000/svg">
<path d="M16.845 9.87165H18.25C17.9437 8.1004 16.43 6.8754 14.4687 6.8754C12.1162 6.8754 10.3987 8.64665 10.3987 11.5504C10.3987 14.4254 12.0675 16.2141 14.5312 16.2141C16.7362 16.2141 18.3125 14.7679 18.3125 12.4729V11.4379H14.74V12.5704H16.985C16.955 14.0354 15.9862 14.9629 14.5312 14.9629C12.9287 14.9629 11.7612 13.7504 11.7612 11.5404C11.7612 9.33915 12.9362 8.1279 14.4775 8.1279C15.685 8.1279 16.5037 8.7929 16.845 9.87165ZM3.015 16.0904L3.85 13.6841H7.4L8.23125 16.0904H9.6875L6.41625 6.99915H4.83125L1.56 16.0904H3.015ZM4.25 12.5304L5.59 8.6504H5.66125L7 12.5304H4.25Z"/>
</svg>
