<svg width="20" height="20" viewBox="0 0 20 20" xmlns="http://www.w3.org/2000/svg">
<path fill-rule="evenodd" clip-rule="evenodd" d="M11.4787 5.47873C11.1896 5.18959 10.7536 5.10562 10.3777 5.2667L4.82551 7.64621C4.30043 7.87124 3.89664 8.31008 3.71599 8.85204L1.31623 16.0513C1.10678 16.6797 1 17.3377 1 18L6 12.9828C5.80081 12.4814 6.10162 11.4011 6.5 11C6.99798 10.4986 8.50202 10.4986 9 11C9.49798 11.5014 9.49798 12.9986 9 13.5C8.60162 13.9011 7.49798 14.2006 7 14L2 19C2.66233 19 3.32034 18.8933 3.94868 18.6838L11.148 16.284C11.6899 16.1034 12.1288 15.6996 12.3538 15.1745L14.7333 9.62229C14.8944 9.24645 14.8104 8.8104 14.5213 8.52127L11.4787 5.47873Z"/>
<path fill-rule="evenodd" clip-rule="evenodd" d="M18.2929 9.70711L10.2929 1.70711L11.7071 0.292893L19.7071 8.29289L18.2929 9.70711Z"/>
</svg>
