<svg width="20" height="21" viewBox="0 0 20 21" xmlns="http://www.w3.org/2000/svg">
<path d="M0.215174 0.818054L0.182007 7.78473L7.18201 7.81805L4.35301 4.97559C7.48939 2.03828 12.4139 2.10015 15.4749 5.1612C18.5991 8.2854 18.5991 13.3507 15.4749 16.4749C12.3507 19.5991 7.28542 19.5991 4.16122 16.4749L2.74701 17.8891C6.65225 21.7944 12.9839 21.7944 16.8891 17.8891C20.7944 13.9839 20.7944 7.65223 16.8891 3.74699C13.0481 -0.0940335 6.85985 -0.1572 2.94163 3.55749L0.215174 0.818054Z"/>
<path d="M8.5 5.5H10.5V10.0858L14.2071 13.7929L12.7929 15.2071L8.5 10.9142V5.5Z"/>
</svg>
