<svg width="20" height="21" viewBox="0 0 20 21" xmlns="http://www.w3.org/2000/svg">
<path d="M19 8.12176C19 4.20775 15.8155 1.02328 11.9015 1.02328C8.76976 1.02328 6.1068 3.06212 5.16644 5.88043C2.71151 7.00109 1 9.47543 1 12.3437C1 16.2577 4.18447 19.4421 8.09847 19.4421C11.2302 19.4421 13.8932 17.4033 14.8336 14.585C17.2885 13.4671 19 10.99 19 8.12176ZM8.09847 18.0552C4.9473 18.0552 2.38696 15.4921 2.38696 12.3437C2.38696 10.4158 3.34951 8.71261 4.81692 7.67516C4.8086 7.82218 4.80028 7.97197 4.80028 8.12176C4.80028 12.0358 7.98474 15.2202 11.8988 15.2202C12.3037 15.2202 12.7004 15.1842 13.086 15.1204C12.1068 16.8679 10.2399 18.0552 8.09847 18.0552Z"/>
</svg>
