<svg width="20" height="20" viewBox="0 0 20 20" xmlns="http://www.w3.org/2000/svg">
<path fill-rule="evenodd" clip-rule="evenodd" d="M8.39996 3.59994C8.39996 4.47994 9.11996 5.19994 9.99996 5.19994C10.88 5.19994 11.6 4.47994 11.6 3.59994C11.6 2.71994 10.88 1.99994 9.99996 1.99994C9.11996 1.99994 8.39996 2.71994 8.39996 3.59994ZM8.39996 9.99994C8.39996 10.8799 9.11996 11.5999 9.99996 11.5999C10.88 11.5999 11.6 10.8799 11.6 9.99994C11.6 9.11994 10.88 8.39994 9.99996 8.39994C9.11996 8.39994 8.39996 9.11994 8.39996 9.99994ZM8.39996 16.3999C8.39996 17.2799 9.11996 17.9999 9.99996 17.9999C10.88 17.9999 11.6 17.2799 11.6 16.3999C11.6 15.5199 10.88 14.7999 9.99996 14.7999C9.11996 14.7999 8.39996 15.5199 8.39996 16.3999Z"/>
</svg>
