<svg width="20" height="20" viewBox="0 0 20 20" xmlns="http://www.w3.org/2000/svg">
<path fill-rule="evenodd" clip-rule="evenodd" d="M3.59997 11.6C4.47997 11.6 5.19997 10.88 5.19997 10C5.19997 9.12 4.47997 8.4 3.59997 8.4C2.71997 8.4 1.99997 9.12 1.99997 10C1.99997 10.88 2.71997 11.6 3.59997 11.6ZM9.99997 11.6C10.88 11.6 11.6 10.88 11.6 10C11.6 9.12001 10.88 8.40001 9.99997 8.40001C9.11997 8.40001 8.39997 9.12001 8.39997 10C8.39997 10.88 9.11997 11.6 9.99997 11.6ZM16.4 11.6C17.28 11.6 18 10.88 18 10C18 9.12001 17.28 8.40001 16.4 8.40001C15.52 8.40001 14.8 9.12001 14.8 10C14.8 10.88 15.52 11.6 16.4 11.6Z"/>
</svg>
