<svg width="20" height="20" viewBox="0 0 20 20" xmlns="http://www.w3.org/2000/svg">
<path d="M8.29289 4.29289L10.2929 2.2929C12.3403 0.245521 15.6597 0.245519 17.7071 2.2929C19.7545 4.34028 19.7545 7.65974 17.7071 9.70712L15.7071 11.7071L14.2929 10.2929L16.2929 8.29291C17.5592 7.02658 17.5592 4.97345 16.2929 3.70711C15.0266 2.44078 12.9734 2.44078 11.7071 3.70711L9.7071 5.70711L8.29289 4.29289Z"/>
<path d="M11.7071 15.7071L9.70711 17.7071C7.65973 19.7545 4.34027 19.7545 2.29289 17.7071C0.245509 15.6597 0.24551 12.3403 2.29289 10.2929L4.29288 8.29289L5.7071 9.7071L3.7071 11.7071C2.44077 12.9734 2.44077 15.0266 3.7071 16.2929C4.97344 17.5592 7.02657 17.5592 8.2929 16.2929L10.2929 14.2929L11.7071 15.7071Z"/>
<path d="M7.7071 13.7071L13.7071 7.70711L12.2929 6.29289L6.29289 12.2929L7.7071 13.7071Z"/>
</svg>
