<svg width="20" height="20" viewBox="0 0 20 20" xmlns="http://www.w3.org/2000/svg">
<path fill-rule="evenodd" clip-rule="evenodd" d="M18.9022 16H7.90216V14H18.9022V16Z"/>
<path fill-rule="evenodd" clip-rule="evenodd" d="M18.9022 5.99999H7.90216V3.99999H18.9022V5.99999Z"/>
<path d="M3.648 2.39999H1.408V3.55199H2.384V7.99999H3.648V2.39999Z"/>
<path d="M2.836 12.32C1.516 12.32 0.875999 13.224 0.875999 14.2V14.36H2.196V14.2C2.196 13.576 2.588 13.456 2.836 13.456C3.044 13.456 3.484 13.536 3.484 14.144C3.484 14.56 3.324 14.776 2.244 16.104L0.835999 17.832V18H4.812V16.888H3.1L3.428 16.456C4.452 15.176 4.804 14.864 4.804 14.08C4.804 13.176 4.1 12.32 2.836 12.32Z"/>
</svg>
