<svg width="20" height="21" viewBox="0 0 20 21" xmlns="http://www.w3.org/2000/svg">
<path d="M4.76244 16.2816C6.18994 16.2816 6.93494 15.5154 7.19119 14.9816H7.25369V16.0904H8.51244V10.6991C8.51244 8.10039 6.53119 7.80164 5.48744 7.80164C4.25119 7.80164 2.84494 8.22789 2.20619 9.71914L3.39994 10.1454C3.67619 9.54914 4.33119 8.91039 5.52994 8.91039C6.68619 8.91039 7.25494 9.52289 7.25494 10.5729V10.6141C7.25494 11.2216 6.63744 11.1691 5.14619 11.3604C3.62869 11.5579 1.97119 11.8929 1.97119 13.7679C1.97119 15.3666 3.20869 16.2816 4.76244 16.2816ZM4.95369 15.1529C3.95244 15.1529 3.22869 14.7054 3.22869 13.8316C3.22869 12.8729 4.10119 12.5754 5.08119 12.4466C5.61369 12.3841 7.04119 12.2341 7.25494 11.9779V13.1279C7.25494 14.1516 6.44494 15.1529 4.95369 15.1529ZM14.1087 19.3279C16.0687 19.3279 17.6462 18.4341 17.6462 16.3254V7.90914H16.4312V9.20914H16.3037C16.0262 8.78164 15.5162 7.80164 13.9162 7.80164C11.8499 7.80164 10.4224 9.44289 10.4224 11.9566C10.4224 14.5141 11.9137 15.9629 13.8962 15.9629C15.4937 15.9629 16.0049 15.0254 16.2824 14.5779H16.3887V16.2404C16.3887 17.6029 15.4299 18.2216 14.1087 18.2216C12.6224 18.2216 12.1012 17.4379 11.7649 16.9841L10.7637 17.6879C11.2762 18.5454 12.2812 19.3279 14.1087 19.3279ZM14.0662 14.8329C12.4899 14.8329 11.6787 13.6404 11.6787 11.9354C11.6787 10.2729 12.4687 8.93164 14.0662 8.93164C15.5999 8.93164 16.4099 10.1666 16.4099 11.9354C16.4099 13.7466 15.5787 14.8329 14.0662 14.8329Z"/>
</svg>
