<svg width="20" height="20" viewBox="0 0 20 20" xmlns="http://www.w3.org/2000/svg">
<path fill-rule="evenodd" clip-rule="evenodd" d="M19 10C19 5.00377 14.9706 0.953491 10.0001 0.953491C5.02942 0.953491 1 5.00377 1 10C1 14.9961 5.02942 19.0465 10 19.0465C14.9706 19.0465 19 14.9961 19 10ZM8.32411 5.73193C8.24346 5.84152 8.1969 5.97246 8.19026 6.10837C8.18363 6.24428 8.21722 6.37913 8.28682 6.49606C8.333 6.57336 8.39404 6.64074 8.46642 6.69431C9.5147 7.4753 10.1165 8.66944 10.1165 9.97103C10.1165 11.2726 9.5147 12.4668 8.46642 13.2478C8.39413 13.3013 8.33316 13.3687 8.28704 13.446C8.19345 13.6026 8.16575 13.7899 8.21001 13.9669C8.23187 14.0546 8.27061 14.1371 8.32411 14.2096C8.37751 14.2821 8.44472 14.3433 8.52187 14.3897C8.59902 14.4362 8.68459 14.4669 8.77366 14.4802C8.86273 14.4934 8.95353 14.4889 9.04086 14.4669C9.12818 14.4449 9.2103 14.4059 9.28249 14.3521C9.60535 14.1114 9.90113 13.8364 10.1646 13.5318H12.1063C12.4844 13.5318 12.7916 13.2241 12.7916 12.8443C12.7916 12.4644 12.4851 12.1567 12.1063 12.1567H11.0346C11.3342 11.4671 11.488 10.723 11.4865 9.97114C11.4881 9.21919 11.3343 8.47503 11.0347 7.78533H12.107C12.4851 7.78533 12.7922 7.47774 12.7922 7.09779C12.7922 6.71795 12.4856 6.41037 12.107 6.41037H10.1657C9.90211 6.10551 9.60615 5.8302 9.28304 5.5893C9.21095 5.53554 9.12894 5.49656 9.04174 5.4746C8.95453 5.45263 8.86384 5.44812 8.77489 5.46132C8.59493 5.48835 8.43305 5.58567 8.32478 5.73193H8.32411ZM7.31235 9.36541C7.26277 9.49297 7.23892 9.62908 7.2422 9.7659C7.24835 10.0332 7.35798 10.2877 7.548 10.4757C7.73681 10.6626 7.99166 10.7675 8.25729 10.7677C8.52285 10.7674 8.7776 10.6625 8.96636 10.4757C9.15638 10.2877 9.26601 10.0332 9.27217 9.7659C9.27552 9.6291 9.25175 9.49298 9.20224 9.36541C9.15285 9.2382 9.07863 9.12209 8.9839 9.02386C8.88953 8.92604 8.77648 8.84817 8.65145 8.79487C8.52681 8.74176 8.39272 8.71438 8.25724 8.71438C8.12175 8.71438 7.98766 8.74176 7.86302 8.79487C7.73803 8.84818 7.62502 8.92605 7.53069 9.02386C7.43596 9.12209 7.36174 9.2382 7.31235 9.36541Z"/>
</svg>
