<svg width="20" height="20" viewBox="0 0 20 20" xmlns="http://www.w3.org/2000/svg">
<path d="M17.3626 10C17.3557 8.32606 16.7786 6.70443 15.7265 5.40248V14.6057C16.7935 13.3089 17.3724 11.6793 17.3626 10ZM14.6057 15.7265H5.40248C6.0644 16.2249 6.80179 16.6143 7.58671 16.8799C8.35797 17.1764 9.17403 17.3396 10 17.3626C10.8399 17.3451 11.6703 17.1818 12.4542 16.8799C13.2265 16.6085 13.9522 16.2194 14.6057 15.7265ZM9.18193 14.0903L5.90968 7.54581V14.0903H9.18193ZM14.0903 7.54581L10.8181 14.0903H14.0903V7.54581ZM10 12.0697L13.0677 5.90968H6.93226L10 12.0697ZM14.6057 4.27355C13.3056 3.21522 11.6805 2.63738 10.0041 2.63738C8.32771 2.63738 6.70256 3.21522 5.40248 4.27355H14.6057ZM4.27355 14.6057V5.40248C3.22138 6.70443 2.64429 8.32606 2.63742 10C2.62761 11.6793 3.20652 13.3089 4.27355 14.6057ZM18.9987 10C19.0191 11.1847 18.7959 12.361 18.3427 13.4559C17.8896 14.5507 17.2163 15.5408 16.3645 16.3645C15.5408 17.2163 14.5507 17.8896 13.4559 18.3427C12.361 18.7959 11.1847 19.0191 10 18.9987C8.81539 19.0182 7.63938 18.7944 6.54467 18.3414C5.44996 17.8883 4.45982 17.2155 3.63545 16.3645C2.78373 15.5408 2.11041 14.5507 1.65727 13.4559C1.20413 12.361 0.980853 11.1847 1.00129 10C0.981827 8.81539 1.20555 7.63938 1.65863 6.54467C2.11171 5.44996 2.78452 4.45982 3.63545 3.63545C4.45982 2.78452 5.44996 2.11171 6.54467 1.65863C7.63938 1.20555 8.81539 0.981827 10 1.00129C11.1847 0.980853 12.361 1.20413 13.4559 1.65727C14.5507 2.11041 15.5408 2.78373 16.3645 3.63545C17.2155 4.45982 17.8883 5.44996 18.3414 6.54467C18.7944 7.63938 19.0182 8.81539 18.9987 10Z"/>
</svg>
