<svg width="21" height="21" viewBox="0 0 21 21" xmlns="http://www.w3.org/2000/svg">
<path d="M14.5744 9.8678C13.6411 9.61891 12.3833 10.6678 11.7567 10.0011C10.9967 9.19225 12.7656 7.54336 12.5833 6.03669C12.4367 4.80113 11.0233 4.22336 9.62334 4.21447C8.5235 4.1987 7.43168 4.40378 6.41252 4.81755C5.39336 5.23132 4.46759 5.84537 3.69001 6.62336C0.738894 9.55225 0.103339 13.7345 3.08112 16.6145C5.84112 19.2811 10.4633 18.4945 13.1567 15.9922C13.9894 15.1742 14.6301 14.1814 15.0322 13.0856C15.5122 11.7967 15.5567 10.1345 14.5744 9.8678ZM4.42778 7.9478C4.66853 7.85329 4.93668 7.85662 5.175 7.9571C5.41332 8.05758 5.60293 8.24723 5.70334 8.48558C5.74333 8.74103 5.68144 9.00197 5.531 9.21226C5.38055 9.42255 5.15357 9.56538 4.89889 9.61002C4.65825 9.70572 4.38962 9.70297 4.15098 9.60236C3.91234 9.50175 3.72283 9.31135 3.62334 9.07225C3.58452 8.81696 3.64687 8.5566 3.79712 8.34659C3.94736 8.13658 4.17364 7.9935 4.42778 7.9478ZM2.50334 12.5034C2.46345 12.2473 2.52594 11.9857 2.6773 11.7753C2.82866 11.5649 3.05673 11.4225 3.31223 11.3789C3.55235 11.2846 3.81986 11.288 4.05746 11.3886C4.29506 11.4891 4.48383 11.6787 4.58334 11.9167C4.61841 12.1699 4.5543 12.4268 4.4044 12.6339C4.25449 12.8409 4.03039 12.9821 3.77889 13.0278C3.5397 13.122 3.27335 13.12 3.03559 13.0222C2.79784 12.9245 2.60711 12.7385 2.50334 12.5034ZM5.61445 16.2056C5.3738 16.3013 5.10518 16.2985 4.86654 16.1979C4.6279 16.0973 4.43839 15.9069 4.33889 15.6678C4.29997 15.4132 4.36171 15.1534 4.51105 14.9435C4.66038 14.7336 4.88557 14.5901 5.13889 14.5434C5.37964 14.4488 5.6478 14.4522 5.88612 14.5527C6.12444 14.6531 6.31404 14.8428 6.41445 15.0811C6.43399 15.2096 6.42797 15.3406 6.39674 15.4667C6.36551 15.5928 6.30968 15.7115 6.23246 15.816C6.15524 15.9205 6.05815 16.0087 5.94675 16.0755C5.83536 16.1424 5.71186 16.1866 5.58334 16.2056H5.61445ZM6.91667 6.92113C6.87786 6.66585 6.94021 6.40549 7.09045 6.19548C7.2407 5.98547 7.46697 5.84239 7.72112 5.79669C7.96196 5.70334 8.22965 5.70726 8.46766 5.8076C8.70567 5.90795 8.89536 6.09687 8.99667 6.33447C9.03656 6.59057 8.97407 6.85209 8.82271 7.06249C8.67135 7.2729 8.44328 7.4153 8.18778 7.45891C7.94776 7.55444 7.67977 7.55157 7.44185 7.45091C7.20394 7.35025 7.01525 7.15992 6.91667 6.92113ZM9.50334 16.7834C9.26269 16.8791 8.99406 16.8763 8.75543 16.7757C8.51679 16.6751 8.32728 16.4847 8.22778 16.2456C8.18897 15.9903 8.25132 15.7299 8.40156 15.5199C8.55181 15.3099 8.77808 15.1668 9.03223 15.1211C9.27307 15.0278 9.54076 15.0317 9.77877 15.132C10.0168 15.2324 10.2065 15.4213 10.3078 15.6589C10.3474 15.917 10.2831 16.1802 10.129 16.391C9.97488 16.6018 9.7435 16.7429 9.48556 16.7834H9.50334ZM11.7256 12.1345C11.5883 12.4842 11.3183 12.7654 10.9744 12.9167C10.7783 13.0032 10.5666 13.0485 10.3522 13.05C10.119 13.0577 9.88832 12.9992 9.68696 12.8812C9.4856 12.7632 9.32178 12.5906 9.21445 12.3834C9.14806 12.2454 9.11102 12.0952 9.10566 11.9422C9.10031 11.7892 9.12676 11.6367 9.18334 11.4945C9.32057 11.1448 9.5906 10.8636 9.93445 10.7122C10.242 10.5528 10.5995 10.5192 10.9314 10.6188C11.2632 10.7183 11.5433 10.9431 11.7122 11.2456C11.773 11.3866 11.8044 11.5386 11.8044 11.6922C11.8044 11.8459 11.773 11.9978 11.7122 12.1389L11.7256 12.1345Z"/>
<path d="M16.9 5.59999V7.69999H17.6V5.59999H19.7V4.89999H17.6V2.79999H16.9V4.89999H14.8V5.59999H16.9Z"/>
</svg>
