<svg width="16" height="17" viewBox="0 0 16 17" xmlns="http://www.w3.org/2000/svg">
<path d="M14.3244 7.1178C13.3911 6.86891 12.1333 7.9178 11.5067 7.25113C10.7467 6.44225 12.5155 4.79336 12.3333 3.28669C12.1867 2.05113 10.7733 1.47336 9.37332 1.46447C8.27349 1.4487 7.18167 1.65378 6.16251 2.06755C5.14335 2.48132 4.21757 3.09537 3.43999 3.87336C0.488879 6.80225 -0.146677 10.9845 2.8311 13.8645C5.5911 16.5311 10.2133 15.7445 12.9067 13.2422C13.7394 12.4242 14.38 11.4314 14.7822 10.3356C15.2622 9.04669 15.3067 7.38447 14.3244 7.1178ZM4.17777 5.1978C4.41851 5.10329 4.68667 5.10662 4.92499 5.2071C5.16331 5.30758 5.35291 5.49723 5.45332 5.73558C5.49331 5.99103 5.43143 6.25197 5.28098 6.46226C5.13054 6.67255 4.90356 6.81538 4.64888 6.86002C4.40823 6.95572 4.1396 6.95297 3.90097 6.85236C3.66233 6.75175 3.47282 6.56135 3.37332 6.32225C3.33451 6.06696 3.39686 5.8066 3.5471 5.59659C3.69735 5.38658 3.92362 5.2435 4.17777 5.1978ZM2.25332 9.75336C2.21343 9.49725 2.27592 9.23574 2.42728 9.02533C2.57864 8.81492 2.80672 8.67253 3.06221 8.62891C3.30233 8.53458 3.56985 8.53804 3.80745 8.63856C4.04504 8.73908 4.23382 8.92867 4.33332 9.16669C4.3684 9.41989 4.30428 9.67685 4.15438 9.8839C4.00448 10.0909 3.78037 10.2321 3.52888 10.2778C3.28969 10.372 3.02333 10.37 2.78558 10.2722C2.54783 10.1745 2.3571 9.98854 2.25332 9.75336ZM5.36443 13.4556C5.12379 13.5513 4.85516 13.5485 4.61652 13.4479C4.37789 13.3473 4.18837 13.1569 4.08888 12.9178C4.04995 12.6632 4.1117 12.4034 4.26103 12.1935C4.41036 11.9836 4.63555 11.8401 4.88888 11.7934C5.12963 11.6988 5.39778 11.7022 5.6361 11.8027C5.87442 11.9031 6.06402 12.0928 6.16443 12.3311C6.18397 12.4596 6.17796 12.5906 6.14672 12.7167C6.11549 12.8428 6.05967 12.9615 5.98244 13.066C5.90522 13.1705 5.80813 13.2587 5.69674 13.3255C5.58534 13.3924 5.46184 13.4366 5.33332 13.4556H5.36443ZM6.66666 4.17113C6.62784 3.91585 6.69019 3.65549 6.84044 3.44548C6.99068 3.23547 7.21696 3.09239 7.4711 3.04669C7.71194 2.95334 7.97963 2.95726 8.21764 3.0576C8.45565 3.15795 8.64534 3.34687 8.74666 3.58447C8.78655 3.84057 8.72406 4.10209 8.5727 4.31249C8.42134 4.5229 8.19326 4.6653 7.93777 4.70891C7.69775 4.80444 7.42975 4.80157 7.19184 4.70091C6.95392 4.60025 6.76524 4.40992 6.66666 4.17113ZM9.25332 14.0334C9.01268 14.1291 8.74405 14.1263 8.50541 14.0257C8.26677 13.9251 8.07726 13.7347 7.97777 13.4956C7.93895 13.2403 8.0013 12.9799 8.15155 12.7699C8.30179 12.5599 8.52807 12.4168 8.78221 12.3711C9.02305 12.2778 9.29074 12.2817 9.52875 12.382C9.76676 12.4824 9.95645 12.6713 10.0578 12.9089C10.0974 13.167 10.0331 13.4302 9.87898 13.641C9.72486 13.8518 9.49349 13.9929 9.23555 14.0334H9.25332ZM11.4755 9.38447C11.3383 9.73418 11.0683 10.0154 10.7244 10.1667C10.5283 10.2532 10.3165 10.2985 10.1022 10.3C9.86896 10.3077 9.6383 10.2492 9.43695 10.1312C9.23559 10.0132 9.07176 9.84059 8.96443 9.63336C8.89805 9.4954 8.861 9.34518 8.85565 9.19218C8.85029 9.03917 8.87674 8.88672 8.93332 8.74447C9.07056 8.39476 9.34058 8.11355 9.68443 7.96225C9.99198 7.80276 10.3495 7.76925 10.6814 7.8688C11.0132 7.96835 11.2932 8.19314 11.4622 8.49558C11.523 8.63665 11.5543 8.78864 11.5543 8.94225C11.5543 9.09585 11.523 9.24784 11.4622 9.38891L11.4755 9.38447Z"/>
</svg>
