<svg width="20" height="20" viewBox="0 0 20 20" xmlns="http://www.w3.org/2000/svg">
<path fill-rule="evenodd" clip-rule="evenodd" d="M13.2929 2.29289C14.788 0.797799 17.212 0.797799 18.7071 2.29289C20.2022 3.78799 20.2022 6.21201 18.7071 7.70711L9.70711 16.7071C7.65973 18.7545 4.34028 18.7545 2.2929 16.7071C0.245302 14.6595 0.246451 11.3393 2.29361 9.29218L5.29242 6.29337L6.7071 7.70712L3.85966 10.5546C3.85966 10.5546 3.89975 10.5145 3.8577 10.5565L3.70782 10.7064C2.44128 11.9729 2.441 14.0268 3.70711 15.2929C4.97344 16.5592 7.02657 16.5592 8.2929 15.2929L17.2929 6.29289C18.0069 5.57885 18.0069 4.42115 17.2929 3.70711C16.5789 2.99306 15.4212 2.99306 14.7071 3.70711L5.70711 12.7071C5.54535 12.8689 5.54535 13.1311 5.70711 13.2929C5.86887 13.4547 6.13114 13.4547 6.2929 13.2929L13.2929 6.29289L14.7071 7.70711L7.70711 14.7071C6.7643 15.6499 5.23571 15.6499 4.2929 14.7071C3.35009 13.7643 3.35009 12.2357 4.2929 11.2929L13.2929 2.29289Z"/>
</svg>
