<svg width="20" height="20" viewBox="0 0 20 20" xmlns="http://www.w3.org/2000/svg">
<path fill-rule="evenodd" clip-rule="evenodd" d="M11.6 3C8.61765 3 6.19999 5.41766 6.19999 8.4C6.19999 9.9112 6.81944 11.2759 7.82082 12.2572C8.7958 13.2126 10.1283 13.8 11.6 13.8C14.5823 13.8 17 11.3823 17 8.4C17 5.41766 14.5823 3 11.6 3ZM4.19999 8.4C4.19999 4.31309 7.51308 1 11.6 1C15.6869 1 19 4.31309 19 8.4C19 12.4869 15.6869 15.8 11.6 15.8C9.93822 15.8 8.40323 15.2513 7.16816 14.3266L2.70063 18.7135L1.29935 17.2865L5.74289 12.9231C4.7762 11.6728 4.19999 10.1031 4.19999 8.4Z"/>
</svg>
