<svg width="20" height="20" viewBox="0 0 20 20" xmlns="http://www.w3.org/2000/svg">
<path d="M10 18.75C8.78472 18.75 7.64657 18.5193 6.58555 18.0578C5.52454 17.5963 4.60093 16.9725 3.81472 16.1862C3.02852 15.4 2.40468 14.4764 1.94319 13.4154C1.48171 12.3544 1.25065 11.2159 1.25 10C1.25 8.78472 1.48106 7.64657 1.94319 6.58555C2.40532 5.52454 3.02884 4.60093 3.81375 3.81472C4.59995 3.02852 5.52356 2.40468 6.58458 1.94319C7.6456 1.48171 8.78407 1.25065 10 1.25C11.2153 1.25 12.3537 1.48106 13.4154 1.94319C14.4771 2.40532 15.4007 3.02884 16.1862 3.81375C16.9718 4.59995 17.5956 5.52356 18.0578 6.58458C18.5199 7.6456 18.7506 8.78407 18.75 10C18.75 11.2153 18.5193 12.3537 18.0578 13.4154C17.5963 14.4771 16.9725 15.4007 16.1862 16.1862C15.4 16.9718 14.4764 17.5956 13.4154 18.0578C12.3544 18.5199 11.2159 18.7506 10 18.75ZM11.6528 16.6111C12.8681 16.3032 13.9213 15.7037 14.8125 14.8125C15.7037 13.9213 16.3032 12.8681 16.6111 11.6528L11.6528 16.6111ZM10.0243 16.1736L16.7812 9.41667L16.684 8.72444C16.6516 8.48981 16.5949 8.25875 16.5139 8.03125L9.125 15.4201C9.25463 15.566 9.39657 15.6998 9.55083 15.8217C9.70509 15.9435 9.86292 16.0608 10.0243 16.1736ZM8.22569 14.2535L15.8819 6.59722C15.7847 6.43518 15.6875 6.27704 15.5903 6.12278C15.4931 5.96852 15.3796 5.8188 15.25 5.67361L7.69097 13.2083C7.77199 13.3866 7.85722 13.5609 7.94667 13.7314C8.03611 13.9019 8.12912 14.0759 8.22569 14.2535ZM7.25347 11.6285L14.2049 4.65278C14.0428 4.52315 13.885 4.40551 13.7314 4.29986C13.5778 4.19421 13.4115 4.0931 13.2326 3.99653L7.08333 10.1458C7.09954 10.4051 7.11995 10.6562 7.14458 10.8993C7.16921 11.1424 7.20551 11.3854 7.25347 11.6285ZM7.25347 7.93403L11.75 3.41319C11.5069 3.34838 11.2639 3.29977 11.0208 3.26736C10.7778 3.23495 10.5347 3.21065 10.2917 3.19444C9.49768 3.66435 8.84143 4.3044 8.32292 5.11458C7.8044 5.92477 7.44792 6.86458 7.25347 7.93403Z"/>
</svg>
