<svg width="20" height="20" viewBox="0 0 20 20" xmlns="http://www.w3.org/2000/svg">
<path fill-rule="evenodd" clip-rule="evenodd" d="M0.0602112 1.34175L1.9398 0.658264L2.79134 3.00001H19.2808L16.9701 12.2425C16.8589 12.6877 16.4589 13 16 13H5C4.5795 13 4.20392 12.7369 4.06021 12.3418L0.0602112 1.34175Z"/>
<path d="M6.50003 15C5.43364 15 4.56114 15.8725 4.56114 16.9389C4.56114 18.0053 5.43364 18.8778 6.50003 18.8778C7.56642 18.8778 8.43892 18.0053 8.43892 16.9389C8.43892 15.8725 7.56642 15 6.50003 15Z"/>
<path d="M14.2251 15.0001C13.1587 15.0001 12.2862 15.8726 12.2862 16.939C12.2862 18.0054 13.1587 18.8779 14.2251 18.8779C15.2915 18.8779 16.164 18.0054 16.164 16.939C16.164 15.8726 15.2915 15.0001 14.2251 15.0001Z"/>
</svg>
