<svg width="20" height="21" viewBox="0 0 20 21" xmlns="http://www.w3.org/2000/svg">
<path d="M2.325 16.0904L3.4225 13.0004H7.8325L8.93 16.0904H10.315L6.31 5.18164H4.94625L0.940002 16.0904H2.325ZM3.8375 11.8279L5.585 6.90664H5.67L7.4175 11.8291L3.8375 11.8279ZM17.1575 9.87164H18.5638C18.2575 8.10039 16.7438 6.87539 14.7825 6.87539C12.43 6.87539 10.7125 8.64664 10.7125 11.5504C10.7125 14.4254 12.3813 16.2141 14.845 16.2141C17.05 16.2141 18.6263 14.7679 18.6263 12.4729V11.4379H15.0538V12.5704H17.2988C17.2688 14.0354 16.3 14.9629 14.845 14.9629C13.2425 14.9629 12.075 13.7504 12.075 11.5404C12.075 9.33914 13.25 8.12789 14.7913 8.12789C15.9988 8.12789 16.8163 8.79289 17.1575 9.87164Z"/>
</svg>
