<svg width="20" height="20" viewBox="0 0 20 20" xmlns="http://www.w3.org/2000/svg">
<path fill-rule="evenodd" clip-rule="evenodd" d="M14.3037 3.5234C14.3689 3.58802 14.4802 3.70543 14.5629 3.86188C14.8038 4.31732 14.6298 4.88174 14.1743 5.12255C13.7539 5.34485 13.2406 5.21366 12.9747 4.83388C12.9596 4.82034 12.9359 4.80013 12.9018 4.77367C12.8015 4.6958 12.6482 4.59182 12.4477 4.4771C12.0467 4.24757 11.5031 4.00126 10.899 3.83986C9.67649 3.51325 8.39061 3.56947 7.40308 4.52999C6.96652 4.95462 6.73164 5.51839 6.73164 6.11252C6.73164 6.69585 6.97281 7.26481 7.40692 7.69878C7.84415 8.12209 8.43456 8.3587 9.0672 8.3587H10.9328C11.0471 8.3587 11.1608 8.36329 11.2736 8.37234H16.5438C17.059 8.37234 17.4766 8.78998 17.4766 9.30516C17.4766 9.82034 17.059 10.238 16.5438 10.238H14.4704C14.9053 10.8998 15.134 11.6785 15.134 12.4705C15.134 13.5773 14.6752 14.6167 13.9054 15.3829L13.8977 15.3904C12.2253 17.0172 10.0177 16.9626 8.38508 16.5545C7.55267 16.3464 6.80778 16.034 6.24765 15.7388C5.96771 15.5913 5.72201 15.4418 5.52734 15.3031C5.43071 15.2343 5.33593 15.1605 5.25208 15.0839C5.18638 15.024 5.05821 14.9014 4.96548 14.7311C4.71919 14.2786 4.88635 13.7121 5.33885 13.4658C5.74998 13.242 6.25521 13.3596 6.52888 13.7223C6.5459 13.7363 6.57234 13.7569 6.60992 13.7837C6.72254 13.8639 6.89415 13.9707 7.11744 14.0884C7.56378 14.3236 8.16902 14.5774 8.83753 14.7445C10.205 15.0864 11.6006 15.0188 12.593 14.0568C13.0272 13.6229 13.2684 13.0539 13.2684 12.4705C13.2684 11.8701 13.0294 11.2991 12.6047 10.8954C12.2184 10.5283 11.7194 10.295 11.1879 10.238H3.45626C2.94107 10.238 2.52344 9.82034 2.52344 9.30516C2.52344 8.78998 2.94107 8.37234 3.45626 8.37234H5.55775C5.11645 7.71119 4.86601 6.93026 4.86601 6.11252C4.86601 5.01484 5.30445 3.96865 6.10229 3.19262C7.7519 1.58812 9.83259 1.62388 11.3805 2.03744C12.1616 2.24612 12.8541 2.56006 13.3745 2.85795C13.6348 3.00693 13.8635 3.15846 14.0459 3.3C14.1365 3.3704 14.2251 3.44558 14.3037 3.5234ZM6.50979 13.706C6.49855 13.6957 6.50044 13.6961 6.51041 13.7065C6.5102 13.7063 6.50999 13.7062 6.50979 13.706Z"/>
</svg>
