<svg width="20" height="21" viewBox="0 0 20 21" xmlns="http://www.w3.org/2000/svg">
<g clip-path="url(#clip0_5458_16213)">
<path fill-rule="evenodd" clip-rule="evenodd" d="M6.50667 2.62704C7.59333 1.74871 9.04667 1.29871 10.5817 1.29871C12.0933 1.29871 13.5083 1.67871 14.5933 2.53537C15.695 3.40704 16.375 4.70371 16.5083 6.36037L14.8467 6.49371C14.7467 5.24371 14.2583 4.39371 13.56 3.84371C12.845 3.28204 11.8283 2.96537 10.5817 2.96537C9.35667 2.96537 8.29333 3.32371 7.555 3.92204C6.83167 4.50871 6.38333 5.34704 6.38333 6.42704C6.38333 7.45204 6.85833 8.11537 7.44833 8.58037C7.54833 8.66037 7.65167 8.73204 7.755 8.79871H5.405C4.995 8.17704 4.71667 7.39537 4.71667 6.42704C4.71667 4.82704 5.40333 3.51871 6.50667 2.62704ZM14.7067 13.7987H16.4883C16.6033 14.1987 16.6667 14.6437 16.6667 15.1337C16.6667 16.7537 16.045 18.122 14.8917 19.0687C13.7583 20.002 12.1883 20.4654 10.38 20.4654C8.54667 20.4654 7.07 19.9487 6 19.0004C4.93333 18.0554 4.35 16.7554 4.17333 15.3337L5.82667 15.127C5.965 16.227 6.39833 17.127 7.105 17.752C7.80833 18.3754 8.86333 18.7987 10.38 18.7987C11.9217 18.7987 13.0783 18.4037 13.8333 17.782C14.57 17.177 15 16.297 15 15.1337C15 14.5937 14.89 14.157 14.705 13.7987H14.7067ZM0 12.132H20V10.4654H0V12.132Z"/>
</g>
<defs>
<clipPath id="clip0_5458_16213">
<rect width="20" height="20" transform="translate(0 0.465393)"/>
</clipPath>
</defs>
</svg>
