<svg width="20" height="20" viewBox="0 0 20 20" xmlns="http://www.w3.org/2000/svg">
<path d="M9.99998 16.1849C10.2343 16.1849 10.459 16.2779 10.6247 16.4436C10.7904 16.6093 10.8835 16.8341 10.8835 17.0684V17.952C10.8835 18.1863 10.7904 18.411 10.6247 18.5767C10.459 18.7424 10.2343 18.8355 9.99998 18.8355C9.76565 18.8355 9.54091 18.7424 9.37521 18.5767C9.20952 18.411 9.11643 18.1863 9.11643 17.952V17.0684C9.11643 16.8341 9.20952 16.6093 9.37521 16.4436C9.54091 16.2779 9.76565 16.1849 9.99998 16.1849ZM15.6229 14.3736L16.2476 14.9982C16.4085 15.1649 16.4976 15.3881 16.4955 15.6197C16.4935 15.8514 16.4006 16.073 16.2368 16.2368C16.073 16.4006 15.8514 16.4936 15.6197 16.4956C15.388 16.4976 15.1649 16.4085 14.9982 16.2476L14.3735 15.6229C14.2126 15.4563 14.1235 15.2331 14.1256 15.0014C14.1276 14.7698 14.2205 14.5482 14.3843 14.3843C14.5481 14.2205 14.7697 14.1276 15.0014 14.1256C15.2331 14.1236 15.4562 14.2126 15.6229 14.3736ZM4.37707 14.3736C4.53607 14.2151 4.74943 14.1231 4.97381 14.1163C5.19818 14.1094 5.41676 14.1882 5.58513 14.3367C5.7535 14.4852 5.85905 14.6921 5.88034 14.9156C5.90163 15.1391 5.83706 15.3623 5.69974 15.5399L5.62641 15.6229L5.00174 16.2476C4.84274 16.406 4.62938 16.498 4.40501 16.5049C4.18063 16.5118 3.96206 16.4329 3.79368 16.2845C3.62531 16.136 3.51976 15.929 3.49847 15.7056C3.47718 15.4821 3.54175 15.2589 3.67907 15.0813L3.7524 14.9982L4.37707 14.3736ZM9.99998 4.69872C11.406 4.69872 12.7544 5.25724 13.7486 6.25143C14.7427 7.24562 15.3013 8.59402 15.3013 10C15.3013 11.406 14.7427 12.7544 13.7486 13.7486C12.7544 14.7428 11.406 15.3013 9.99998 15.3013C8.59399 15.3013 7.24558 14.7428 6.2514 13.7486C5.25721 12.7544 4.69868 11.406 4.69868 10C4.69868 8.59402 5.25721 7.24562 6.2514 6.25143C7.24558 5.25724 8.59399 4.69872 9.99998 4.69872ZM2.93159 9.11646C3.15678 9.11671 3.37339 9.20294 3.53714 9.35754C3.7009 9.51213 3.79944 9.72342 3.81264 9.94823C3.82583 10.173 3.75269 10.3944 3.60815 10.5671C3.46361 10.7398 3.25858 10.8508 3.03496 10.8774L2.93159 10.8836H2.04804C1.82284 10.8833 1.60623 10.7971 1.44248 10.6425C1.27873 10.4879 1.18018 10.2766 1.16699 10.0518C1.15379 9.82698 1.22693 9.60561 1.37147 9.43292C1.51601 9.26023 1.72104 9.14924 1.94466 9.12265L2.04804 9.11646H2.93159ZM17.9519 9.11646C18.1862 9.11646 18.411 9.20955 18.5767 9.37525C18.7424 9.54094 18.8355 9.76568 18.8355 10C18.8355 10.2343 18.7424 10.4591 18.5767 10.6248C18.411 10.7905 18.1862 10.8836 17.9519 10.8836H17.0684C16.834 10.8836 16.6093 10.7905 16.4436 10.6248C16.2779 10.4591 16.1848 10.2343 16.1848 10C16.1848 9.76568 16.2779 9.54094 16.4436 9.37525C16.6093 9.20955 16.834 9.11646 17.0684 9.11646H17.9519ZM3.7524 3.75244C3.90454 3.60031 4.10696 3.50892 4.32169 3.49542C4.53642 3.48192 4.74869 3.54723 4.91869 3.6791L5.00174 3.75244L5.62641 4.3771C5.78487 4.53611 5.87687 4.74946 5.88372 4.97384C5.89058 5.19822 5.81177 5.41679 5.6633 5.58516C5.51483 5.75354 5.30784 5.85909 5.08438 5.88037C4.86091 5.90166 4.63771 5.83709 4.46013 5.69978L4.37707 5.62644L3.7524 5.00177C3.58676 4.83608 3.49371 4.61139 3.49371 4.3771C3.49371 4.14282 3.58676 3.91813 3.7524 3.75244ZM16.2476 3.75244C16.4132 3.91813 16.5062 4.14282 16.5062 4.3771C16.5062 4.61139 16.4132 4.83608 16.2476 5.00177L15.6229 5.62644C15.5414 5.71083 15.4439 5.77814 15.3361 5.82445C15.2283 5.87075 15.1124 5.89513 14.995 5.89615C14.8777 5.89717 14.7614 5.87481 14.6528 5.83039C14.5442 5.78596 14.4456 5.72035 14.3626 5.63739C14.2796 5.55444 14.214 5.45579 14.1696 5.3472C14.1252 5.23862 14.1028 5.12227 14.1038 5.00495C14.1049 4.88764 14.1292 4.7717 14.1755 4.6639C14.2218 4.5561 14.2892 4.45861 14.3735 4.3771L14.9982 3.75244C15.1639 3.5868 15.3886 3.49374 15.6229 3.49374C15.8572 3.49374 16.0819 3.5868 16.2476 3.75244ZM9.99998 1.16452C10.2343 1.16452 10.459 1.25761 10.6247 1.42331C10.7904 1.589 10.8835 1.81374 10.8835 2.04807V2.93162C10.8835 3.16595 10.7904 3.39068 10.6247 3.55638C10.459 3.72208 10.2343 3.81517 9.99998 3.81517C9.76565 3.81517 9.54091 3.72208 9.37521 3.55638C9.20952 3.39068 9.11643 3.16595 9.11643 2.93162V2.04807C9.11643 1.81374 9.20952 1.589 9.37521 1.42331C9.54091 1.25761 9.76565 1.16452 9.99998 1.16452Z"/>
</svg>
