<svg width="20" height="20" viewBox="0 0 20 20" xmlns="http://www.w3.org/2000/svg">
<path d="M15.9 4.1V6.2H16.6V4.1H18.7V3.4H16.6V1.3H15.9V3.4H13.8V4.1H15.9Z"/>
<path d="M5.26496 10.7187C5.34882 10.1531 5.57284 9.61737 5.91663 9.16041L3.38788 6.63874C2.38764 7.77658 1.78364 9.20828 1.66663 10.7187H5.26496ZM6.66038 8.41666C7.11805 8.0754 7.6537 7.85383 8.21871 7.77207V4.16666C6.70825 4.28367 5.27655 4.88767 4.13871 5.88791L6.66038 8.41666ZM9.28121 4.16666V7.70832C9.86464 7.8031 10.4137 8.0471 10.875 8.41666L13.3966 5.89499C12.2502 4.88512 10.8049 4.27812 9.28121 4.16666ZM5.91663 13.375C5.57537 12.9173 5.3538 12.3817 5.27204 11.8167H1.66663C1.77567 13.3238 2.36957 14.7551 3.35954 15.8967L5.91663 13.375ZM8.21871 14.735C7.65305 14.6511 7.11734 14.4271 6.66038 14.0833L4.13871 16.6121C5.27655 17.6123 6.70825 18.2163 8.21871 18.3333V14.735ZM11.5833 9.16041C11.9246 9.61808 12.1461 10.1537 12.2279 10.7187H15.7695C15.6605 9.21164 15.0666 7.78031 14.0766 6.63874L11.5833 9.16041ZM10.875 14.0833C10.4173 14.4246 9.88164 14.6461 9.31663 14.7279V18.2696C10.8237 18.1605 12.2551 17.5666 13.3966 16.5767L10.875 14.0833ZM12.235 11.7812C12.1569 12.3593 11.9326 12.9078 11.5833 13.375L14.105 15.8967C15.1148 14.7503 15.7218 13.3049 15.8333 11.7812H12.235Z"/>
</svg>
