<svg width="20" height="20" viewBox="0 0 20 20" xmlns="http://www.w3.org/2000/svg">
<path fill-rule="evenodd" clip-rule="evenodd" d="M10 5.03C7.77752 5.03 6.38919 6.13417 5.83335 8.34333C6.66669 7.23917 7.63919 6.825 8.75002 7.10083C9.38419 7.25833 9.83752 7.71583 10.3384 8.22167C11.1559 9.04583 12.1017 10 14.1667 10C16.3892 10 17.7775 8.89583 18.3334 6.68667C17.5 7.79083 16.5284 8.205 15.4167 7.92917C14.7825 7.77167 14.3292 7.31417 13.8275 6.80833C13.0109 5.98333 12.0659 5.03 10 5.03ZM5.83335 10C3.61085 10 2.22252 11.1042 1.66669 13.3133C2.50002 12.2083 3.47252 11.795 4.58335 12.0708C5.21752 12.2283 5.67085 12.6858 6.17252 13.1917C6.98919 14.0158 7.93502 14.97 10.0009 14.97C12.2234 14.97 13.6117 13.8658 14.1675 11.6567C13.3342 12.7608 12.3617 13.175 11.2509 12.8992C10.6167 12.7417 10.1634 12.2842 9.66252 11.7783C8.84419 10.9542 7.89835 10 5.83335 10Z"/>
</svg>
