<svg width="20" height="21" viewBox="0 0 20 21" xmlns="http://www.w3.org/2000/svg">
<path d="M2.44252 16.0904L3.54002 13.0004H7.95002L9.04752 16.0904H10.4325L6.42502 5.18164H5.06252L1.05627 16.0904H2.44127H2.44252ZM3.95502 11.8279L5.70252 6.90664H5.78752L7.53502 11.8291L3.95502 11.8279ZM15.2638 19.3279C17.2238 19.3279 18.8013 18.4341 18.8013 16.3254V7.90914H17.5863V9.20914H17.4588C17.1813 8.78164 16.67 7.80164 15.0713 7.80164C13.005 7.80164 11.5775 9.44289 11.5775 11.9566C11.5775 14.5141 13.0688 15.9629 15.05 15.9629C16.6488 15.9629 17.16 15.0254 17.4375 14.5779H17.5438V16.2404C17.5438 17.6029 16.585 18.2216 15.2638 18.2216C13.7775 18.2216 13.255 17.4379 12.92 16.9841L11.9188 17.6879C12.43 18.5454 13.4363 19.3279 15.2638 19.3279ZM15.2213 14.8329C13.645 14.8329 12.8338 13.6404 12.8338 11.9354C12.8338 10.2729 13.6225 8.93164 15.2213 8.93164C16.755 8.93164 17.565 10.1666 17.565 11.9354C17.565 13.7466 16.7338 14.8329 15.2213 14.8329Z"/>
</svg>
