<svg width="20" height="20" viewBox="0 0 20 20" xmlns="http://www.w3.org/2000/svg">
<g clip-path="url(#clip0_5374_7752)">
<path d="M15 15.8333C15.2124 15.8336 15.4167 15.9149 15.5712 16.0607C15.7256 16.2065 15.8185 16.4058 15.831 16.6178C15.8434 16.8299 15.7744 17.0386 15.6381 17.2015C15.5018 17.3644 15.3084 17.4691 15.0975 17.4942L15 17.5H5.00001C4.78761 17.4998 4.58332 17.4184 4.42887 17.2726C4.27443 17.1268 4.18148 16.9275 4.16904 16.7155C4.15659 16.5035 4.22557 16.2947 4.3619 16.1318C4.49823 15.9689 4.6916 15.8643 4.90251 15.8392L5.00001 15.8333H15ZM14.1667 2.5C14.3708 2.50003 14.5678 2.57496 14.7203 2.7106C14.8728 2.84623 14.9703 3.03312 14.9942 3.23583L15 3.33333V10C15.0013 11.3107 14.4879 12.5695 13.5703 13.5055C12.6527 14.4414 11.4043 14.9796 10.0938 15.0041C8.7833 15.0287 7.51556 14.5377 6.5635 13.6369C5.61144 12.736 5.05118 11.4973 5.00335 10.1875L5.00001 10V3.33333C5.00025 3.12093 5.08158 2.91664 5.22739 2.76219C5.37319 2.60775 5.57247 2.5148 5.78451 2.50236C5.99654 2.48991 6.20533 2.5589 6.36821 2.69522C6.53108 2.83155 6.63576 3.02492 6.66085 3.23583L6.66668 3.33333V10C6.66667 10.8696 7.0065 11.7048 7.61368 12.3274C8.22086 12.95 9.0473 13.3106 9.91665 13.3323C10.786 13.3541 11.6294 13.0352 12.267 12.4438C12.9045 11.8524 13.2857 11.0352 13.3292 10.1667L13.3333 10V3.33333C13.3333 3.11232 13.4211 2.90036 13.5774 2.74408C13.7337 2.5878 13.9457 2.5 14.1667 2.5Z"/>
</g>
<defs>
<clipPath id="clip0_5374_7752">
<rect width="20" height="20"/>
</clipPath>
</defs>
</svg>
