<svg width="20" height="21" viewBox="0 0 20 21" xmlns="http://www.w3.org/2000/svg">
<path d="M1.695 16.0904L2.7925 13.0004H7.2025L8.3 16.0904H9.685L5.68 5.18165H4.31625L0.309998 16.0904H1.695ZM3.2075 11.8279L4.955 6.90665H5.04L6.7875 11.8291L3.2075 11.8279ZM18.3287 8.5904H19.6925C19.2875 6.4804 17.52 5.03165 15.2175 5.03165C12.4225 5.03165 10.4462 7.18415 10.4462 10.6354C10.4462 14.0879 12.4062 16.2391 15.3037 16.2391C17.9037 16.2391 19.7562 14.5079 19.7562 11.8079V10.6354H15.6025V11.8079H18.4775C18.44 13.7679 17.1525 15.0041 15.3025 15.0041C13.28 15.0041 11.7237 13.4691 11.7237 10.6354C11.7237 7.80165 13.28 6.2679 15.2187 6.2679C16.795 6.2679 17.8662 7.1579 18.3287 8.5904Z"/>
</svg>
