<svg width="20" height="22" viewBox="0 0 20 22" xmlns="http://www.w3.org/2000/svg">
<path d="M4.14498 14.9866L4.94498 12.7329H8.16373L8.96373 14.9866H9.97498L7.04998 7.02789H6.05748L3.13373 14.9866H4.14498ZM5.24998 11.8779L6.52498 8.28789H6.58748L7.86248 11.8791L5.24998 11.8779ZM13.5 17.3504C14.9312 17.3504 16.0825 16.6979 16.0825 15.1604V9.01664H15.195V9.96539H15.1025C14.9 9.65289 14.5275 8.93789 13.3612 8.93789C11.8537 8.93789 10.8112 10.1354 10.8112 11.9704C10.8112 13.8354 11.8987 14.8929 13.345 14.8929C14.5112 14.8929 14.885 14.2091 15.0875 13.8829H15.165V15.0954C15.165 16.0891 14.465 16.5404 13.5012 16.5404C12.4162 16.5404 12.035 15.9691 11.7912 15.6379L11.06 16.1504C11.4337 16.7766 12.1675 17.3491 13.5012 17.3491V17.3479L13.5 17.3504ZM13.47 14.0704C12.32 14.0704 11.7287 13.2004 11.7287 11.9579C11.7287 10.7441 12.3037 9.76539 13.47 9.76539C14.5887 9.76539 15.18 10.6654 15.18 11.9566C15.18 13.2779 14.5737 14.0704 13.47 14.0704Z"/>
<path fill-rule="evenodd" clip-rule="evenodd" d="M0.78125 4.99664H19.2188V5.93414H0.78125V4.99664ZM9.84375 17.1841H0.78125V16.2466H9.84375V17.1841ZM17.0312 16.2466H19.2188V17.1841H17.0312V16.2466Z"/>
</svg>
