<svg width="20" height="21" viewBox="0 0 20 21" xmlns="http://www.w3.org/2000/svg">
<path d="M4.23122 13.7404L5.03122 11.4866H8.24997L9.04997 13.7404H10.0625L7.13747 5.78162H6.14372L3.21997 13.7404H4.23122ZM5.33372 10.6304L6.60872 7.04037H6.67122L7.94622 10.6316H5.33372V10.6304ZM13.585 16.1029C15.015 16.1029 16.1662 15.4504 16.1662 13.9116V7.77162H15.2787V8.72037H15.1862C14.985 8.40787 14.6112 7.69287 13.445 7.69287C11.9375 7.69287 10.895 8.89037 10.895 10.7241C10.895 12.5904 11.9837 13.6479 13.4287 13.6479C14.5962 13.6479 14.9687 12.9641 15.1712 12.6366H15.2487V13.8491C15.2487 14.8441 14.5487 15.2954 13.5862 15.2954C12.5012 15.2954 12.12 14.7241 11.875 14.3929L11.145 14.9054C11.5175 15.5316 12.2525 16.1029 13.585 16.1029ZM13.555 12.8229C12.405 12.8229 11.8125 11.9529 11.8125 10.7091C11.8125 9.49662 12.3875 8.51787 13.555 8.51787C14.6737 8.51787 15.2637 9.41787 15.2637 10.7091C15.2637 12.0304 14.6575 12.8229 13.555 12.8229Z"/>
<path fill-rule="evenodd" clip-rule="evenodd" d="M1.25 2.02789H18.75V2.96539H1.25V2.02789ZM1.25 18.2779H18.75V19.2154H1.25V18.2779Z"/>
</svg>
